<svg xmlns="http://www.w3.org/2000/svg" width="20" height="20" viewBox="0 0 16 16">
	<defs>
		<linearGradient id="gradient" x1=".25" y1="-.1" x2="0" y2=".5">
			<stop stop-color="#F7B535" offset="0%"/>
			<stop stop-color="#E61D72" offset="100%"/>
		</linearGradient>
	</defs>
	<circle cx="8" cy="8" r="8" fill="url(#gradient)"/>
	<path stroke-width=".1" stroke="#fff" fill="#fff" d="M8.11 10.48H6.99l-.92-3.17h-.02l-.93 3.17H4L2.67 5.8h1.22l.74 3.11h.02l.83-3.11h1.18l.84 3.11h.02l.75-3.11h1.18zm5.37-3.24q0 .41-.15.7-.16.27-.41.44-.26.18-.6.26-.34.08-.7.08h-.56v1.76H9.93V5.8h1.72q.38 0 .71.08.34.07.58.24.25.17.4.45.14.27.14.67zm-1.13 0q0-.16-.07-.26t-.18-.17q-.11-.06-.26-.08-.13-.02-.29-.02h-.5v1.1h.48q.16 0 .3-.02.15-.03.27-.1.11-.06.18-.16.07-.12.07-.28z" aria-label="WP"/>
</svg>
